<svg xmlns="http://www.w3.org/2000/svg" width="120" height="120" viewBox="0 0 120 120">
  <g id="logo_120x120" transform="translate(-1000 -289)">
    <rect id="Rectangle_2340" data-name="Rectangle 2340" width="120" height="120" rx="6" transform="translate(1000 289)" fill="#03002f"/>
    <g id="Group_8377" data-name="Group 8377" transform="translate(878.066 309.896)">
      <path id="Path_4352" data-name="Path 4352" d="M43.007,0A5.158,5.158,0,0,1,37.85,5.158,5.158,5.158,0,0,1,32.692,0h-4.22A9.378,9.378,0,0,0,37.85,9.378,9.378,9.378,0,0,0,47.227,0Z" transform="translate(113.84 31.104)" fill="#f04e45"/>
      <path id="Path_4353" data-name="Path 4353" d="M4.22,30.233a5.158,5.158,0,1,1,10.316,0h4.22A9.378,9.378,0,1,0,0,30.233Z" transform="translate(132.934 17.117)" fill="#fff"/>
      <path id="Path_4354" data-name="Path 4354" d="M91.82,30.233V21.076h2.086l.185,1.551a3.221,3.221,0,0,1,1.228-1.292,3.62,3.62,0,0,1,1.892-.48,3.331,3.331,0,0,1,2.64,1.071,4.62,4.62,0,0,1,.941,3.138v5.169H98.429V25.286a2.937,2.937,0,0,0-.48-1.81,1.764,1.764,0,0,0-1.5-.627,2.107,2.107,0,0,0-1.634.7,2.807,2.807,0,0,0-.637,1.957v4.726Z" transform="translate(71.357 17.117)" fill="#fff"/>
      <path id="Path_4355" data-name="Path 4355" d="M157.139,30.684l-3.36-9.157h2.474l2.326,6.923,2.326-6.923h2.473L160,30.684Z" transform="translate(29.806 16.666)" fill="#fff"/>
      <path id="Path_4356" data-name="Path 4356" d="M187.7,30.455a4.3,4.3,0,0,1-2.308-.628,4.486,4.486,0,0,1-1.606-1.717,5.1,5.1,0,0,1-.591-2.474,5.048,5.048,0,0,1,.591-2.464,4.442,4.442,0,0,1,1.606-1.7,4.345,4.345,0,0,1,2.308-.618,4,4,0,0,1,1.809.387,3.262,3.262,0,0,1,1.256,1.089l.129-1.255h2.234v9.156H190.91l-.148-1.311a4.211,4.211,0,0,1-1.172,1.071,3.49,3.49,0,0,1-1.892.462m.5-2.068a2.472,2.472,0,0,0,1.874-.766,3.015,3.015,0,0,0,0-3.932,2.674,2.674,0,0,0-3.738-.009,2.685,2.685,0,0,0-.738,1.956,2.749,2.749,0,0,0,.738,1.976,2.466,2.466,0,0,0,1.865.775" transform="translate(10.08 17.117)" fill="#fff"/>
      <path id="Path_4357" data-name="Path 4357" d="M218.794,30.233V21.076h2.086l.2,1.237a3.251,3.251,0,0,1,1.172-1.062,3.479,3.479,0,0,1,1.689-.4,3.139,3.139,0,0,1,3.009,1.643,3.547,3.547,0,0,1,1.338-1.2,3.874,3.874,0,0,1,1.837-.443,3.5,3.5,0,0,1,2.751,1.071,4.562,4.562,0,0,1,.96,3.138v5.169h-2.363V25.286a3.068,3.068,0,0,0-.453-1.81,1.6,1.6,0,0,0-1.394-.627,1.9,1.9,0,0,0-1.541.7,2.982,2.982,0,0,0-.582,1.957v4.726h-2.363V25.286a3.023,3.023,0,0,0-.461-1.81,1.649,1.649,0,0,0-1.421-.627,1.883,1.883,0,0,0-1.523.7,2.983,2.983,0,0,0-.581,1.957v4.726Z" transform="translate(-13.795 17.117)" fill="#fff"/>
      <path id="Path_4358" data-name="Path 4358" d="M272.856,30.455a4.3,4.3,0,0,1-2.308-.628,4.485,4.485,0,0,1-1.606-1.717,5.1,5.1,0,0,1-.591-2.474,5.048,5.048,0,0,1,.591-2.464,4.441,4.441,0,0,1,1.606-1.7,4.345,4.345,0,0,1,2.308-.618,4,4,0,0,1,1.809.387,3.262,3.262,0,0,1,1.256,1.089l.129-1.255h2.234v9.156h-2.215l-.148-1.311a4.211,4.211,0,0,1-1.172,1.071,3.491,3.491,0,0,1-1.892.462m.5-2.068a2.472,2.472,0,0,0,1.874-.766,3.015,3.015,0,0,0,0-3.932,2.674,2.674,0,0,0-3.738-.009,2.685,2.685,0,0,0-.739,1.956,2.749,2.749,0,0,0,.739,1.976,2.465,2.465,0,0,0,1.865.775" transform="translate(-47.029 17.117)" fill="#fff"/>
      <path id="Path_4359" data-name="Path 4359" d="M123.828,26.624v-5.1h2.344V26.55c0,1.538.744,2.36,2.132,2.36,1.408,0,2.132-.822,2.132-2.36V21.527h2.345v5.1a4.481,4.481,0,0,1-8.953,0" transform="translate(49.891 16.666)" fill="#fff"/>
    </g>
  </g>
</svg>
